<svg xmlns="http://www.w3.org/2000/svg" viewBox="0 0 30 30"><path d="M17 22c-.3 0-.5.2-.5.5v2c0 .3.2.5.5.5s.5-.2.5-.5v-2c0-.3-.2-.5-.5-.5zm-9.5-3.7l-.9-3.9c0-.3-.3-.4-.6-.4-.3.1-.4.3-.4.6l.9 3.9c.1.3.3.4.6.4.3-.1.5-.4.4-.6zm2-.2l-1.6-3.6c-.1-.3-.4-.4-.7-.3s-.4.4-.3.7l1.6 3.7c.1.3.4.4.7.2s.4-.4.3-.7zm0-8L7.9 6.5c-.1-.3-.4-.4-.7-.3s-.4.4-.3.7l1.6 3.7c.1.3.4.4.7.2s.4-.4.3-.7zm-2 8.2l-.9-3.9c0-.3-.3-.4-.6-.4-.3.1-.4.3-.4.6l.9 3.9c.1.3.3.4.6.4.3-.1.5-.4.4-.6zm2-.2l-1.6-3.6c-.1-.3-.4-.4-.7-.3s-.4.4-.3.7l1.6 3.7c.1.3.4.4.7.2s.4-.4.3-.7zM17 22c-.3 0-.5.2-.5.5v2c0 .3.2.5.5.5s.5-.2.5-.5v-2c0-.3-.2-.5-.5-.5zm0 0c-.3 0-.5.2-.5.5v2c0 .3.2.5.5.5s.5-.2.5-.5v-2c0-.3-.2-.5-.5-.5zm-7.5-3.9l-1.6-3.6c-.1-.3-.4-.4-.7-.3s-.4.4-.3.7l1.6 3.7c.1.3.4.4.7.2s.4-.4.3-.7zm-2 .2l-.9-3.9c0-.3-.3-.4-.6-.4-.3.1-.4.3-.4.6l.9 3.9c.1.3.3.4.6.4.3-.1.5-.4.4-.6zm0 0l-.9-3.9c0-.3-.3-.4-.6-.4-.3.1-.4.3-.4.6l.9 3.9c.1.3.3.4.6.4.3-.1.5-.4.4-.6zm2-.2l-1.6-3.6c-.1-.3-.4-.4-.7-.3s-.4.4-.3.7l1.6 3.7c.1.3.4.4.7.2s.4-.4.3-.7zm0-8L7.9 6.5c-.1-.3-.4-.4-.7-.3s-.4.4-.3.7l1.6 3.7c.1.3.4.4.7.2s.4-.4.3-.7zM17 22c-.3 0-.5.2-.5.5v2c0 .3.2.5.5.5s.5-.2.5-.5v-2c0-.3-.2-.5-.5-.5zm0 0c-.3 0-.5.2-.5.5v2c0 .3.2.5.5.5s.5-.2.5-.5v-2c0-.3-.2-.5-.5-.5zM9.5 10.1L7.9 6.5c-.1-.3-.4-.4-.7-.3s-.4.4-.3.7l1.6 3.7c.1.3.4.4.7.2s.4-.4.3-.7zm0 8l-1.6-3.6c-.1-.3-.4-.4-.7-.3s-.4.4-.3.7l1.6 3.7c.1.3.4.4.7.2s.4-.4.3-.7zm-2 .2l-.9-3.9c0-.3-.3-.4-.6-.4-.3.1-.4.3-.4.6l.9 3.9c.1.3.3.4.6.4.3-.1.5-.4.4-.6zm0 0l-.9-3.9c0-.3-.3-.4-.6-.4-.3.1-.4.3-.4.6l.9 3.9c.1.3.3.4.6.4.3-.1.5-.4.4-.6zm2-.2l-1.6-3.6c-.1-.3-.4-.4-.7-.3s-.4.4-.3.7l1.6 3.7c.1.3.4.4.7.2s.4-.4.3-.7zm0-8L7.9 6.5c-.1-.3-.4-.4-.7-.3s-.4.4-.3.7l1.6 3.7c.1.3.4.4.7.2s.4-.4.3-.7zM17 22c-.3 0-.5.2-.5.5v2c0 .3.2.5.5.5s.5-.2.5-.5v-2c0-.3-.2-.5-.5-.5zm-9.5-3.7l-.9-3.9c0-.3-.3-.4-.6-.4-.3.1-.4.3-.4.6l.9 3.9c.1.3.3.4.6.4.3-.1.5-.4.4-.6zm2-.2l-1.6-3.6c-.1-.3-.4-.4-.7-.3s-.4.4-.3.7l1.6 3.7c.1.3.4.4.7.2s.4-.4.3-.7zm0-8L7.9 6.5c-.1-.3-.4-.4-.7-.3s-.4.4-.3.7l1.6 3.7c.1.3.4.4.7.2s.4-.4.3-.7zM17 22c-.3 0-.5.2-.5.5v2c0 .3.2.5.5.5s.5-.2.5-.5v-2c0-.3-.2-.5-.5-.5zm0 0c-.3 0-.5.2-.5.5v2c0 .3.2.5.5.5s.5-.2.5-.5v-2c0-.3-.2-.5-.5-.5zM9.5 10.1L7.9 6.5c-.1-.3-.4-.4-.7-.3s-.4.4-.3.7l1.6 3.7c.1.3.4.4.7.2s.4-.4.3-.7zm0 8l-1.6-3.6c-.1-.3-.4-.4-.7-.3s-.4.4-.3.7l1.6 3.7c.1.3.4.4.7.2s.4-.4.3-.7zm-2 .2l-.9-3.9c0-.3-.3-.4-.6-.4-.3.1-.4.3-.4.6l.9 3.9c.1.3.3.4.6.4.3-.1.5-.4.4-.6zm0 0l-.9-3.9c0-.3-.3-.4-.6-.4-.3.1-.4.3-.4.6l.9 3.9c.1.3.3.4.6.4.3-.1.5-.4.4-.6zm2-.2l-1.6-3.6c-.1-.3-.4-.4-.7-.3s-.4.4-.3.7l1.6 3.7c.1.3.4.4.7.2s.4-.4.3-.7zm0-8L7.9 6.5c-.1-.3-.4-.4-.7-.3s-.4.4-.3.7l1.6 3.7c.1.3.4.4.7.2s.4-.4.3-.7zM17 22c-.3 0-.5.2-.5.5v2c0 .3.2.5.5.5s.5-.2.5-.5v-2c0-.3-.2-.5-.5-.5zm0 0c-.3 0-.5.2-.5.5v2c0 .3.2.5.5.5s.5-.2.5-.5v-2c0-.3-.2-.5-.5-.5zM9.5 10.1L7.9 6.5c-.1-.3-.4-.4-.7-.3s-.4.4-.3.7l1.6 3.7c.1.3.4.4.7.2s.4-.4.3-.7zm0 8l-1.6-3.6c-.1-.3-.4-.4-.7-.3s-.4.4-.3.7l1.6 3.7c.1.3.4.4.7.2s.4-.4.3-.7zm-2 .2l-.9-3.9c0-.3-.3-.4-.6-.4-.3.1-.4.3-.4.6l.9 3.9c.1.3.3.4.6.4.3-.1.5-.4.4-.6zM17 22c-.3 0-.5.2-.5.5v2c0 .3.2.5.5.5s.5-.2.5-.5v-2c0-.3-.2-.5-.5-.5zm0 0c-.3 0-.5.2-.5.5v2c0 .3.2.5.5.5s.5-.2.5-.5v-2c0-.3-.2-.5-.5-.5zm0 0c-.3 0-.5.2-.5.5v2c0 .3.2.5.5.5s.5-.2.5-.5v-2c0-.3-.2-.5-.5-.5zm-9.5-3.7l-.9-3.9c0-.3-.3-.4-.6-.4-.3.1-.4.3-.4.6l.9 3.9c.1.3.3.4.6.4.3-.1.5-.4.4-.6zm2-.2l-1.6-3.6c-.1-.3-.4-.4-.7-.3s-.4.4-.3.7l1.6 3.7c.1.3.4.4.7.2s.4-.4.3-.7zm0-8L7.9 6.5c-.1-.3-.4-.4-.7-.3s-.4.4-.3.7l1.6 3.7c.1.3.4.4.7.2s.4-.4.3-.7zm15-7.1h-19a1 1 0 0 0-1 1v23c0 .6.5 1 1 1h1v1.5c0 .3.2.5.5.5s.5-.2.5-.5V28h15v1.5c0 .3.2.5.5.5s.5-.2.5-.5V28h1c.6 0 1-.5 1-1V4c0-.5-.5-1-1-1zm-10 24h-9v-7h9v7zm0-8h-9v-7h9v7zm0-8h-9V4h9v7zm10 16h-9v-7h9v7zm0-8h-9v-7h9v7zm0-8h-9V4h9v7zm-17.3-.1c-.3.1-.5-.1-.6-.4l-.9-3.9c-.1-.3.1-.5.4-.6s.5.1.6.4l.9 3.9c0 .2-.2.5-.4.6zM24.3 7l-1.6 3.7c-.1.3-.4.4-.7.2s-.4-.4-.3-.7l1.6-3.7c.1-.3.4-.4.7-.2.3.1.4.4.3.7zm-1.4.5l-2.4 3.2c-.2.2-.5.3-.7.1s-.3-.5-.1-.7l2.4-3.2c.2-.2.5-.3.7-.1.2.1.2.4.1.7zm1.3 7.3l-1.6 3.7c-.1.3-.4.4-.6.2-.2-.1-.4-.4-.3-.7l1.6-3.7c.1-.3.4-.4.7-.3.2.3.3.6.2.8zm-2-.1l-.9 3.9c-.1.3-.3.4-.6.4-.3-.1-.4-.3-.4-.6l.9-3.9c.1-.3.3-.4.6-.4s.4.3.4.6zm-10.8 4c-.2.2-.5.1-.7-.1l-2.2-3.3c-.1-.2-.1-.5.1-.7s.5-.1.7.1l2.2 3.3c.2.3.1.6-.1.7zm2.1 3.8v2c0 .3-.2.5-.5.5s-.5-.2-.5-.5v-2c0-.3.2-.5.5-.5s.5.2.5.5z"></path></svg>